<svg width="127" height="29" viewBox="0 0 127 29" fill="none" xmlns="http://www.w3.org/2000/svg">
<path d="M22.6021 19.9849C22.6021 11.2889 9.53342 11.8872 9.53342 8.337C9.53342 7.37964 10.0895 6.90096 10.8045 6.90096C11.7579 6.90096 12.6715 7.41953 12.7509 9.1348H22.2446C22.0063 3.27098 17.6368 0 10.8443 0C4.84615 0 0.0794452 2.95186 0.0794452 8.61623C-0.0794452 18.2696 13.1879 16.8735 13.2276 20.7029C13.2276 21.7001 12.3934 22.099 11.5195 22.099C10.6456 22.099 9.53342 21.74 9.37453 19.6657H0C0.397226 26.0083 5.44199 29 11.8771 29C18.6696 29 22.6021 25.1706 22.6021 19.9849Z" fill="#222222"/>
<path d="M44.4496 0.47868H25.7005V28.7208H44.4496V21.6602H34.5189V17.6713H43.2579V11.0096H34.5189V7.5392H44.4496V0.47868Z" fill="#222222"/>
<path d="M47.7729 0.47868V28.7208H65.092V22.0193H56.5913V0.47868H47.7729Z" fill="#222222"/>
<path d="M67.8669 0.47868V28.7208H85.186V22.0193H76.6854V0.47868H67.8669Z" fill="#222222"/>
<path d="M116.085 14.4801C116.085 5.98349 109.689 0 101.665 0C93.681 0 87.1665 5.98349 87.1665 14.4801C87.1665 22.9766 93.681 29 101.665 29C109.61 29 116.085 22.9766 116.085 14.4801ZM96.1438 14.4801C96.1438 10.6506 98.0505 8.17744 101.665 8.17744C105.201 8.17744 107.147 10.6506 107.147 14.4801C107.147 18.2297 105.201 20.7428 101.665 20.7428C98.0505 20.7428 96.1438 18.2297 96.1438 14.4801Z" fill="#222222"/>
<path d="M118.055 18.7482C122.443 18.7482 126 15.1764 126 10.7702C126 6.3641 122.443 2.79224 118.055 2.79224C113.668 2.79224 110.111 6.3641 110.111 10.7702C110.111 15.1764 113.668 18.7482 118.055 18.7482Z" fill="#FF2600"/>
<path d="M118.056 17.2524C121.62 17.2524 124.51 14.3502 124.51 10.7703C124.51 7.19029 121.62 4.28815 118.056 4.28815C114.491 4.28815 111.601 7.19029 111.601 10.7703C111.601 14.3502 114.491 17.2524 118.056 17.2524Z" stroke="white" stroke-width="3"/>
</svg>
